<mxfile host="Electron" modified="2024-03-14T05:17:03.824Z" agent="Mozilla/5.0 (Windows NT 10.0; Win64; x64) AppleWebKit/537.36 (KHTML, like Gecko) draw.io/24.0.4 Chrome/120.0.6099.109 Electron/28.1.0 Safari/537.36" etag="5TnYZpidn3aPZKO0myLe" version="24.0.4" type="device">
  <diagram name="Page-1" id="TOHCNXvHcT2LT87kQPW1">
    <mxGraphModel dx="607" dy="396" grid="1" gridSize="10" guides="1" tooltips="1" connect="1" arrows="1" fold="1" page="1" pageScale="1" pageWidth="850" pageHeight="1100" math="0" shadow="0">
      <root>
        <mxCell id="0" />
        <mxCell id="1" parent="0" />
        <mxCell id="DrANuQYDPfBoonbdJ91k-8" value="" style="rounded=0;whiteSpace=wrap;html=1;" parent="1" vertex="1">
          <mxGeometry x="20" y="20" width="210" height="210" as="geometry" />
        </mxCell>
        <mxCell id="DrANuQYDPfBoonbdJ91k-1" value="Director" style="rounded=0;whiteSpace=wrap;html=1;" parent="1" vertex="1">
          <mxGeometry x="40" y="40" width="60" height="60" as="geometry" />
        </mxCell>
        <mxCell id="DrANuQYDPfBoonbdJ91k-2" value="IPC Handler" style="rounded=0;whiteSpace=wrap;html=1;" parent="1" vertex="1">
          <mxGeometry x="150" y="40" width="60" height="60" as="geometry" />
        </mxCell>
        <mxCell id="DrANuQYDPfBoonbdJ91k-3" value="File Watcher" style="rounded=0;whiteSpace=wrap;html=1;" parent="1" vertex="1">
          <mxGeometry x="40" y="150" width="60" height="60" as="geometry" />
        </mxCell>
        <mxCell id="DrANuQYDPfBoonbdJ91k-4" value="" style="endArrow=classic;html=1;rounded=0;exitX=1;exitY=0.25;exitDx=0;exitDy=0;entryX=0;entryY=0.25;entryDx=0;entryDy=0;" parent="1" edge="1">
          <mxGeometry width="50" height="50" relative="1" as="geometry">
            <mxPoint x="100.00000000000011" y="85.00000000000006" as="sourcePoint" />
            <mxPoint x="149.9999999999999" y="84.99999999999994" as="targetPoint" />
          </mxGeometry>
        </mxCell>
        <mxCell id="DrANuQYDPfBoonbdJ91k-5" value="" style="endArrow=classic;html=1;rounded=0;entryX=1;entryY=0.75;entryDx=0;entryDy=0;exitX=0;exitY=0.75;exitDx=0;exitDy=0;" parent="1" edge="1">
          <mxGeometry width="50" height="50" relative="1" as="geometry">
            <mxPoint x="150" y="55" as="sourcePoint" />
            <mxPoint x="100" y="55" as="targetPoint" />
          </mxGeometry>
        </mxCell>
        <mxCell id="DrANuQYDPfBoonbdJ91k-6" value="" style="endArrow=classic;html=1;rounded=0;exitX=0.75;exitY=1;exitDx=0;exitDy=0;entryX=0.75;entryY=0;entryDx=0;entryDy=0;" parent="1" edge="1">
          <mxGeometry width="50" height="50" relative="1" as="geometry">
            <mxPoint x="60" y="100" as="sourcePoint" />
            <mxPoint x="60" y="150" as="targetPoint" />
          </mxGeometry>
        </mxCell>
        <mxCell id="DrANuQYDPfBoonbdJ91k-7" value="" style="endArrow=classic;html=1;rounded=0;exitX=0.25;exitY=0;exitDx=0;exitDy=0;entryX=0.25;entryY=1;entryDx=0;entryDy=0;" parent="1" edge="1">
          <mxGeometry width="50" height="50" relative="1" as="geometry">
            <mxPoint x="80" y="150" as="sourcePoint" />
            <mxPoint x="80" y="100" as="targetPoint" />
          </mxGeometry>
        </mxCell>
        <mxCell id="DrANuQYDPfBoonbdJ91k-9" value="Susi Core" style="text;html=1;align=right;verticalAlign=middle;resizable=0;points=[];autosize=1;strokeColor=none;fillColor=none;fontStyle=1" parent="1" vertex="1">
          <mxGeometry x="130" y="190" width="80" height="30" as="geometry" />
        </mxCell>
        <mxCell id="DrANuQYDPfBoonbdJ91k-10" value="" style="endArrow=classic;html=1;rounded=0;exitX=1;exitY=0.25;exitDx=0;exitDy=0;entryX=0;entryY=0.25;entryDx=0;entryDy=0;" parent="1" edge="1">
          <mxGeometry width="50" height="50" relative="1" as="geometry">
            <mxPoint x="210" y="85.14" as="sourcePoint" />
            <mxPoint x="260" y="85" as="targetPoint" />
          </mxGeometry>
        </mxCell>
        <mxCell id="DrANuQYDPfBoonbdJ91k-11" value="" style="endArrow=classic;html=1;rounded=0;entryX=1;entryY=0.75;entryDx=0;entryDy=0;exitX=0;exitY=0.75;exitDx=0;exitDy=0;" parent="1" edge="1">
          <mxGeometry width="50" height="50" relative="1" as="geometry">
            <mxPoint x="260" y="55" as="sourcePoint" />
            <mxPoint x="210" y="55.14" as="targetPoint" />
          </mxGeometry>
        </mxCell>
        <mxCell id="DrANuQYDPfBoonbdJ91k-12" value="IPC Connections" style="text;html=1;align=center;verticalAlign=middle;resizable=0;points=[];autosize=1;strokeColor=none;fillColor=none;" parent="1" vertex="1">
          <mxGeometry x="260" y="55" width="110" height="30" as="geometry" />
        </mxCell>
      </root>
    </mxGraphModel>
  </diagram>
</mxfile>
